HIERARCHY
ROOT Hips
{
	OFFSET	0.00	0.00	0.00
	CHANNELS 6 Xposition Yposition Zposition Zrotation Xrotation Yrotation
	JOINT LeftUpLeg
	{
		OFFSET	 0.126116	-0.014019	-0.065224
		CHANNELS 3 Zrotation Xrotation Yrotation
		JOINT LeftLeg
		{
			OFFSET	 0.000000	 0.000000	 0.569914
			CHANNELS 3 Zrotation Xrotation Yrotation
			JOINT LeftFoot
			{
				OFFSET	 0.000000	 0.000000	 0.544423
				CHANNELS 3 Zrotation Xrotation Yrotation
				JOINT LeftToeBase
				{
					OFFSET	 0.000000	 0.000000	 0.207117
					CHANNELS 3 Zrotation Xrotation Yrotation
					End Site
					{
						OFFSET	 0.000000	 0.000000	 0.207117
					}
				}
			}
		}
	}
	JOINT RightUpLeg
	{
		OFFSET	-0.124023	-0.008373	-0.065224
		CHANNELS 3 Zrotation Xrotation Yrotation
		JOINT RightLeg
		{
			OFFSET	 0.000000	 0.000000	 0.570047
			CHANNELS 3 Zrotation Xrotation Yrotation
			JOINT RightFoot
			{
				OFFSET	 0.000000	 0.000000	 0.544354
				CHANNELS 3 Zrotation Xrotation Yrotation
				JOINT RightToeBase
				{
					OFFSET	 0.000000	 0.000000	 0.207540
					CHANNELS 3 Zrotation Xrotation Yrotation
					End Site
					{
						OFFSET	 0.000000	 0.000000	 0.207540
					}
				}
			}
		}
	}
	JOINT Spine
	{
		OFFSET	 0.000184	-0.007763	 0.117403
		CHANNELS 3 Zrotation Xrotation Yrotation
		JOINT Spine1
		{
			OFFSET	 0.000000	 0.000000	 0.137269
			CHANNELS 3 Zrotation Xrotation Yrotation
			JOINT Spine2
			{
				OFFSET	 0.000000	 0.000000	 0.156879
				CHANNELS 3 Zrotation Xrotation Yrotation
				JOINT LeftShoulder
				{
					OFFSET	 0.080501	-0.002496	 0.160144
					CHANNELS 3 Zrotation Xrotation Yrotation
					JOINT LeftArm
					{
						OFFSET	 0.000000	 0.000000	 0.164363
						CHANNELS 3 Zrotation Xrotation Yrotation
						JOINT LeftForeArm
						{
							OFFSET	 0.000000	 0.000000	 0.364576
							CHANNELS 3 Zrotation Xrotation Yrotation
							JOINT LeftHand
							{
								OFFSET	 0.000000	 0.000000	 0.360812
								CHANNELS 3 Zrotation Xrotation Yrotation
								JOINT LeftHandIndex1
								{
									OFFSET	 0.000000	 0.000000	 0.086006
									CHANNELS 3 Zrotation Xrotation Yrotation
									JOINT LeftHandIndex2
									{
										OFFSET	 0.000000	 0.000000	 0.047237
										CHANNELS 3 Zrotation Xrotation Yrotation
										JOINT LeftHandIndex3
										{
											OFFSET	-0.004284	-0.000551	 0.038165
											CHANNELS 3 Zrotation Xrotation Yrotation
											End Site
											{
												OFFSET	-0.004284	-0.000551	 0.038165
											}
										}
									}
								}
							}
						}
					}
				}
				JOINT Neck
				{
					OFFSET	 0.000000	 0.000000	 0.176489
					CHANNELS 3 Zrotation Xrotation Yrotation
					JOINT Head
					{
						OFFSET	 0.000000	-0.001747	 0.077940
						CHANNELS 3 Zrotation Xrotation Yrotation
						End Site
						{
							OFFSET	 0.000000	-0.001747	 0.077940
						}
					}
				}
				JOINT RightShoulder
				{
					OFFSET	-0.080363	 0.000306	 0.159706
					CHANNELS 3 Zrotation Xrotation Yrotation
					JOINT RightArm
					{
						OFFSET	 0.000000	 0.000000	 0.164196
						CHANNELS 3 Zrotation Xrotation Yrotation
						JOINT RightForeArm
						{
							OFFSET	 0.000000	 0.000000	 0.365611
							CHANNELS 3 Zrotation Xrotation Yrotation
							JOINT RightHand
							{
								OFFSET	 0.000000	 0.000000	 0.360648
								CHANNELS 3 Zrotation Xrotation Yrotation
								JOINT RightHandIndex1
								{
									OFFSET	 0.000000	 0.000000	 0.069977
									CHANNELS 3 Zrotation Xrotation Yrotation
									JOINT RightHandIndex2
									{
										OFFSET	 0.000000	 0.000000	 0.052305
										CHANNELS 3 Zrotation Xrotation Yrotation
										JOINT RightHandIndex3
										{
											OFFSET	 0.009002	-0.000782	 0.042196
											CHANNELS 3 Zrotation Xrotation Yrotation
											End Site
											{
												OFFSET	 0.009002	-0.000782	 0.042196
											}
										}
									}
								}
							}
						}
					}
				}
			}
		}
	}
}
MOTION
Frames:    5
Frame Time: 0.03333334
-0.639813	-0.130640	 1.281997	-159.784100	 8.968740	 9.508962	-11.521430	-11.288520	 166.653400	-8.977517	-32.105720	-3.747356	-45.332880	 84.576170	 41.347880	-2.385833	 28.452760	 0.000004	 39.652640	-48.527550	-170.171900	-26.478290	-58.401050	-13.357850	 35.478130	 39.748950	-41.919540	 2.384659	 28.388700	-0.000001	 23.565050	-19.914100	-14.126150	 44.337490	 28.578620	-1.148118	-2.784909	-9.078652	-2.524085	-91.776250	 78.527430	-179.999900	 24.610430	 54.082070	-25.448200	-9.270587	-7.542761	-52.374570	 8.293990	-1.748251	-4.308724	-4.131196	 21.524690	 0.986298	-5.167839	 0.733520	 3.519257	-1.378229	 35.397820	-2.634230	-13.969850	 16.393420	-7.924016	-24.743160	 2.904051	 5.308033	 89.782110	 78.203850	 180.000000	 3.909543	 66.772090	-17.307700	-1.564196	-10.394370	 35.111520	 90.322000	-35.209530	 0.888107	 5.715225	 19.176060	-3.692089	 5.027514	 0.245388	-9.378011	-2.350882	 35.473990	 5.254307
-0.639350	-0.130747	 1.282949	-160.764600	 8.873377	 9.547502	-8.611252	-11.361000	 166.647000	-8.236635	-31.538800	-3.296898	-79.372640	 88.329650	 74.256050	-2.385833	 28.452760	 0.000004	 37.436790	-49.192470	-171.133800	-20.607670	-59.004490	-8.342301	 46.344990	 48.114270	-46.800510	 2.384659	 28.388700	-0.000001	 23.949850	-21.109310	-15.179760	 44.775090	 31.253140	-1.566981	-2.858079	-10.059100	-2.281405	-91.776210	 78.527380	-180.000000	 24.365710	 53.842500	-25.180860	-8.645940	-8.331504	-52.246480	 8.996521	-1.351467	-4.605789	-4.131196	 21.524690	 0.986298	-5.167839	 0.733520	 3.519257	-1.378229	 35.397820	-2.634230	-14.016530	 16.378630	-7.701962	-24.730220	 2.685934	 4.826224	 89.782050	 78.203830	-180.000000	 3.946954	 66.941600	-16.964230	-3.149572	-11.269030	 34.314210	 89.403670	-33.107320	 3.496151	 5.715225	 19.176060	-3.692089	 5.027514	 0.245388	-9.378011	-2.350882	 35.473990	 5.254307
-0.639025	-0.130003	 1.283273	-162.304700	 9.834888	 9.105571	-6.112159	-12.419390	 167.205200	-6.119869	-30.950880	-2.146253	 162.711300	 85.506690	-170.113600	-2.385833	 28.452760	 0.000004	 39.341600	-50.130950	-169.258100	-18.272680	-59.219040	-6.342970	 54.286350	 52.367740	-51.911910	 2.384659	 28.388700	-0.000001	 25.733500	-21.478980	-14.162130	 44.417290	 30.902220	 0.333409	-2.927875	-9.448484	-3.530189	-91.776210	 78.527360	-180.000000	 24.317650	 53.600030	-25.356500	-8.044971	-9.098805	-52.159320	 9.685718	-0.911792	-4.927139	-4.131196	 21.524690	 0.986298	-5.167839	 0.733520	 3.519257	-1.378229	 35.397820	-2.634230	-13.819970	 17.052960	-7.867536	-24.595780	 2.507720	 5.369927	 89.782160	 78.203890	 179.999900	 2.953786	 66.913190	-15.576120	-4.780566	-12.219780	 33.699810	 85.669840	-33.888240	 3.461639	 5.715225	 19.176060	-3.692089	 5.027514	 0.245388	-9.378011	-2.350882	 35.473990	 5.254307
-0.636911	-0.129468	 1.283559	-161.653700	 9.577905	 6.350088	-5.534764	-11.203130	 170.219000	-3.950100	-28.368700	-0.949632	 136.001400	 78.936010	-145.260900	-2.385833	 28.452760	 0.000004	 45.930790	-47.404250	-164.497600	-18.215000	-60.570920	-6.352529	 68.653210	 54.927370	-63.016010	 2.384659	 28.388700	-0.000001	 26.470630	-20.974540	-10.322210	 44.304150	 31.832070	-1.842481	-2.557280	-10.376790	-3.052701	-91.776150	 78.527380	 180.000000	 24.575890	 53.369620	-25.688890	-7.642025	-9.513309	-51.815450	 10.243300	-0.485420	-5.216896	-4.131196	 21.524690	 0.986298	-5.167839	 0.733520	 3.519257	-1.378229	 35.397820	-2.634230	-13.196970	 17.130730	-8.544738	-24.550900	 3.142684	 7.636661	 89.782100	 78.203890	 180.000000	 0.429358	 66.806550	-13.084910	-5.142062	-12.438410	 33.588030	 84.248350	-35.272370	 7.062582	 5.715225	 19.176060	-3.692089	 5.027514	 0.245388	-9.378011	-2.350882	 35.473990	 5.254307
-0.637181	-0.130186	 1.283280	-161.944900	 8.741735	 6.839711	-3.293479	-10.843840	 169.671100	-6.378733	-28.793040	-2.135326	 123.956800	 81.889270	-131.566700	-2.385833	 28.452760	 0.000004	 45.690450	-46.904450	-165.761300	-17.874570	-60.230110	-6.061216	 68.089270	 56.457730	-61.633750	 2.384659	 28.388700	-0.000001	 26.757780	-19.181320	-10.692770	 43.767710	 29.691140	-1.339616	-2.266387	-9.258770	-2.584648	-91.776180	 78.527400	 180.000000	 25.107740	 52.695130	-26.136500	-7.538351	-9.707258	-51.980420	 10.454430	-0.217812	-5.398278	-4.131196	 21.524690	 0.986298	-5.167839	 0.733520	 3.519257	-1.378229	 35.397820	-2.634230	-12.759530	 17.172410	-9.284103	-24.635100	 3.132404	 8.855958	 89.782120	 78.203890	 180.000000	-2.418361	 66.805410	-10.428000	-3.255831	-11.247340	 34.077600	 85.842250	-42.492120	 11.938140	 5.715225	 19.176060	-3.692089	 5.027514	 0.245388	-9.378011	-2.350882	 35.473990	 5.254307
